# This file uses centimeters as units for non-parametric coordinates.

mtllib fireplace.mtl
g default
v -4.590584 303.150787 -222.988510
v -4.590584 -102.075165 -222.988510
v -4.590584 480.782074 -222.988510
v -4.590584 419.411957 -222.988510
v -4.590584 349.374664 -222.988510
v -4.569150 1064.806519 -223.003525
v -4.590584 675.346069 -222.988510
v -4.590584 717.075439 -222.988510
v -160.293701 -102.075165 284.162903
v -160.293701 -102.075165 -222.988449
v -160.272278 1064.806519 284.147949
v -160.272278 1064.806519 -223.003448
v -160.293701 731.299072 -222.988449
v -160.293701 731.299072 284.162903
v -160.293701 683.392395 -222.988449
v -160.293701 683.392395 284.162903
v -160.293701 523.610168 -222.988449
v -160.293701 523.610168 284.162903
v -160.293701 477.278290 -222.988449
v -160.293701 477.278290 284.162903
v -160.293701 412.208832 -222.988449
v -160.293701 412.208832 284.162903
v -160.293701 329.885437 -222.988449
v -160.293701 329.885437 284.162903
v -160.293701 289.458710 284.162903
v -160.293701 289.458710 -222.988449
v -4.590584 290.838684 -222.988510
v -51.689068 1064.806519 -223.003479
v -51.710503 721.743530 -222.988480
v -51.710503 677.986816 -222.988495
v -51.710503 494.837891 -222.988480
v -51.710503 438.403198 -222.988495
v -51.710503 369.996307 -222.988480
v -51.710503 329.885162 -222.988480
v -51.710503 289.458710 -222.988480
v -51.710503 -102.075165 -222.988495
v -160.293701 229.651398 284.162903
v -160.293701 229.651398 -222.988449
v -51.710503 229.651398 -222.988480
v -4.590584 228.270996 -222.988510
v -51.689049 1064.806396 284.147949
v -51.710484 731.299072 284.162903
v -51.710484 683.392395 284.162903
v -51.710484 523.610168 284.162903
v -51.710484 477.278259 284.162903
v -51.710484 412.208801 284.162903
v -51.710484 329.885437 284.162903
v -51.710484 -102.075165 284.162903
v -199.194885 229.651428 322.043060
v -199.194885 289.458710 340.503235
v -199.194885 289.458710 -279.328796
v -199.194885 229.651428 -260.868591
v -43.600208 229.651428 -260.868622
v -43.600208 289.458710 -279.328827
v -160.293701 -102.075165 -184.291458
v -160.293701 229.651398 -184.291458
v -199.194885 229.651428 -216.390884
v -199.194885 289.458710 -232.033966
v -160.293701 289.458710 -184.291458
v -160.293701 329.885437 -184.291458
v -160.293701 412.208832 -184.291458
v -160.293701 477.278290 -184.291458
v -160.293701 523.610168 -184.291458
v -160.293701 683.392395 -184.291458
v -160.293701 731.299072 -184.291458
v -160.272278 1064.806519 -184.306458
v -160.293701 -102.075157 241.770065
v -160.293701 229.651382 241.770065
v -199.194870 229.651413 273.317444
v -199.194870 289.458679 288.691437
v -160.293701 289.458679 241.770065
v -160.293701 329.885437 241.770065
v -160.293701 412.208832 241.770065
v -160.293701 477.278290 241.770065
v -160.293701 523.610168 241.770065
v -160.293701 683.392395 241.770065
v -160.293701 731.299072 241.770065
v -160.272278 1064.806519 241.755066
v 0.162659 -102.075157 241.770065
v 0.162659 229.651382 241.770065
v 0.162659 229.651398 -184.291458
v 0.162659 -102.075165 -184.291458
v -4.590580 1111.554810 -222.988525
v -160.293640 1111.554810 284.162903
v -160.293701 1111.554810 241.770065
v -160.293701 1111.554810 -222.988449
v -51.710503 1111.554810 -222.988480
v -51.710564 1111.554688 284.162903
v -160.293701 1111.554810 -184.291458
v -4.590675 -102.075165 284.162903
v -4.590675 228.271194 284.162903
v -51.710480 229.651398 284.162903
v -43.600182 229.651428 322.043060
v -43.600182 289.458710 340.503235
v -51.710480 289.458710 284.162903
v -4.590675 290.838928 284.162903
v -4.590675 329.885437 284.162903
v -4.590675 412.208832 284.162903
v -4.590675 477.278290 284.162903
v -4.590675 523.610168 284.162903
v -4.590675 683.392395 284.162903
v -4.590675 731.299072 284.162903
v -4.569242 1064.806519 284.147949
v -4.590811 1111.554810 284.162903
vt 0.293295 0.794108
vt 0.291803 0.970408
vt 0.271346 0.970241
vt 0.272839 0.793930
vt 0.293523 0.768777
vt 0.273063 0.768595
vt 0.294276 0.684298
vt 0.273816 0.684118
vt 0.294497 0.659794
vt 0.274031 0.659617
vt 0.294808 0.625377
vt 0.274333 0.625202
vt 0.295211 0.581816
vt 0.274705 0.581636
vt 0.106056 0.521211
vt 0.102146 0.694463
vt 0.088814 0.704726
vt 0.086047 0.520700
vt 0.028232 0.718622
vt 0.029901 0.519278
vt 0.213935 0.969786
vt 0.215480 0.788377
vt 0.215683 0.765237
vt 0.216562 0.668409
vt 0.216811 0.638592
vt 0.217077 0.602467
vt 0.217207 0.581277
vt 0.513462 0.532907
vt 0.097653 0.788116
vt 0.031916 0.775518
vt 0.189018 0.969577
vt 0.190582 0.785699
vt 0.190784 0.763616
vt 0.191733 0.660757
vt 0.192021 0.628377
vt 0.192281 0.591412
vt 0.192452 0.567043
vt 0.192499 0.560568
vt 0.192640 0.527746
vt 0.005539 0.518667
vt 0.462042 0.547872
vt 0.492622 0.556919
vt 0.113895 0.760929
vt 0.110361 0.734792
vt 0.040119 0.736734
vt 0.042018 0.765642
vt 0.601199 0.532963
vt 0.034193 0.298915
vt 0.009888 0.298275
vt 0.014373 0.127867
vt 0.596979 0.973052
vt 0.598413 0.796653
vt 0.623338 0.796840
vt 0.621904 0.973262
vt 0.598580 0.771327
vt 0.623465 0.771477
vt 0.599127 0.687031
vt 0.623946 0.687178
vt 0.599298 0.662666
vt 0.624025 0.662844
vt 0.599612 0.628502
vt 0.624302 0.628777
vt 0.600175 0.585301
vt 0.624839 0.585678
vt 0.039826 0.022716
vt 0.625141 0.565290
vt 0.539546 0.972563
vt 0.541018 0.796218
vt 0.541224 0.770907
vt 0.541907 0.686560
vt 0.542132 0.662123
vt 0.542477 0.627812
vt 0.542998 0.584385
vt 0.102015 0.024320
vt 0.118876 0.063506
vt 0.114377 0.103245
vt 0.036925 0.104542
vt 0.036048 0.061370
vt 0.097012 0.127471
vt 0.090197 0.300394
vt 0.194976 0.303284
vt 0.366385 0.308288
vt 0.184608 0.694709
vt 0.188876 0.523360
vt 0.449310 0.310811
vt 0.125048 0.102827
vt 0.132539 0.051163
vt 0.520812 0.562676
vt 0.520584 0.584059
vt 0.520116 0.627550
vt 0.519773 0.661906
vt 0.519543 0.686362
vt 0.518820 0.770736
vt 0.518608 0.796043
vt 0.517123 0.972373
vt 0.112064 0.300975
vt 0.539334 0.997285
vt 0.516917 0.997093
vt 0.271153 0.994957
vt 0.213760 0.994505
vt 0.188840 0.994332
vt 0.596749 0.997777
vt 0.621664 0.998008
vt 0.291598 0.995129
vt 0.103908 0.001992
vt 0.295422 0.560421
vt 0.274866 0.560210
vt 0.600555 0.564086
vt 0.543329 0.563038
vt 0.217300 0.559911
vt 0.442515 0.530688
vt 0.124136 0.764774
vt 0.098808 0.806018
vt 0.118188 0.720421
vt 0.217359 0.528546
vt 0.001249 0.689424
vt 0.112526 0.130017
vt 0.501053 0.288190
vt 0.520378 0.313032
vt 0.469918 0.295152
vt 0.040694 0.127353
vt 0.625752 0.532729
vt 0.359879 0.528194
vt 0.199444 0.131991
vn -1.000000 0.000056 0.000000
vn -1.000000 0.000000 0.000000
vn -1.000000 0.000000 0.000000
vn -1.000000 0.000056 0.000000
vn -1.000000 0.000000 0.000000
vn -1.000000 0.000000 0.000000
vn -1.000000 0.000000 0.000000
vn -1.000000 0.000000 0.000000
vn -1.000000 0.000000 0.000000
vn -1.000000 0.000000 0.000000
vn -1.000000 0.000000 0.000000
vn -1.000000 0.000000 0.000000
vn -1.000000 0.000000 0.000000
vn -1.000000 0.000000 0.000000
vn -1.000000 0.000000 0.000000
vn -1.000000 0.000000 0.000000
vn -1.000000 0.000000 0.000000
vn -1.000000 0.000000 0.000000
vn -0.000000 0.000000 -1.000000
vn -0.000000 0.000000 -1.000000
vn -0.000000 0.000000 -1.000000
vn -0.000000 0.000000 -1.000000
vn -0.000002 -0.000040 -1.000000
vn -0.000002 0.000000 -1.000000
vn -0.000002 -0.000000 -1.000000
vn -0.000002 -0.000039 -1.000000
vn -0.000000 0.000000 -1.000000
vn -0.000000 -0.000000 -1.000000
vn -0.000000 -0.000000 -1.000000
vn -0.000000 0.000000 -1.000000
vn -0.000000 0.000000 -1.000000
vn -0.000000 -0.000000 -1.000000
vn -0.000000 -0.000000 -1.000000
vn -0.000000 -0.000000 -1.000000
vn -0.000000 0.000000 -1.000000
vn -0.000000 0.000000 -1.000000
vn -1.000000 0.000000 0.000000
vn -1.000000 0.000000 0.000000
vn -0.000001 0.000000 -1.000000
vn -0.000000 0.000000 -1.000000
vn -0.000003 -0.000000 -1.000000
vn -0.000003 -0.000038 -1.000000
vn -0.000000 -0.000000 -1.000000
vn -0.000000 0.000000 -1.000000
vn -0.000000 -0.000000 -1.000000
vn -0.000001 -0.000000 -1.000000
vn -0.000001 0.000000 -1.000000
vn -0.000001 0.000000 -1.000000
vn -0.000001 0.000000 -1.000000
vn -0.000001 0.000000 -1.000000
vn -1.000000 0.000000 0.000000
vn -1.000000 0.000000 0.000000
vn -1.000000 0.000000 0.000000
vn -1.000000 0.000000 0.000000
vn -0.000000 -0.294932 -0.955518
vn -0.000000 -0.294932 -0.955518
vn -0.000000 -0.294932 -0.955518
vn -0.000000 -0.294932 -0.955518
vn -0.000000 0.000000 1.000000
vn -0.000000 0.000000 1.000000
vn -0.000000 0.000000 1.000000
vn -0.000000 0.000000 1.000000
vn -0.000000 0.000000 1.000000
vn 0.000000 0.000039 1.000000
vn -0.000000 0.000039 1.000000
vn -0.000000 0.000000 1.000000
vn 0.000000 0.000000 1.000000
vn 0.000000 0.000000 1.000000
vn 0.000000 0.000000 1.000000
vn 0.000000 0.000000 1.000000
vn 0.000000 0.000000 1.000000
vn 0.000000 0.000000 1.000000
vn -0.000000 0.000000 1.000000
vn 0.000000 0.000000 1.000000
vn 0.000000 0.000000 1.000000
vn 0.000000 0.000000 1.000000
vn -0.000000 0.000000 1.000000
vn -0.000000 0.000000 1.000000
vn 0.000000 -0.000000 1.000000
vn 0.000000 0.000039 1.000000
vn 0.000000 0.000000 1.000000
vn 0.000000 0.000000 1.000000
vn -0.000000 0.000000 1.000000
vn -0.000000 0.000000 1.000000
vn -0.000000 0.000000 1.000000
vn 0.000000 0.000000 1.000000
vn 0.000000 -0.294931 0.955518
vn 0.000000 -0.294931 0.955518
vn 0.000000 -0.294931 0.955518
vn 0.000000 -0.294931 0.955518
vn 0.000000 0.000000 1.000000
vn 0.000000 0.000000 1.000000
vn -0.000000 1.000000 0.000000
vn 0.000000 1.000000 0.000000
vn 0.000000 1.000000 0.000000
vn -0.000000 1.000000 0.000000
vn -0.000001 -1.000000 0.000000
vn -0.000000 -1.000000 -0.000000
vn -0.000001 -1.000000 -0.000000
vn -0.000001 -1.000000 0.000000
vn -0.000000 -1.000000 -0.000000
vn -0.000000 -1.000000 -0.000000
vn -0.000000 -1.000000 -0.000000
vn -0.000000 -1.000000 -0.000000
vn 0.000000 1.000000 -0.000000
vn 0.000000 1.000000 -0.000000
vn 0.000000 1.000000 -0.000000
vn 0.000000 1.000000 -0.000000
vn 0.985165 0.026175 0.169602
vn 0.985165 0.026175 0.169602
vn 0.985165 0.026175 0.169602
vn 0.985165 0.026175 0.169602
vn 0.000000 -1.000000 0.000000
vn 0.000000 -1.000000 0.000000
vn 0.000000 -1.000000 0.000000
vn 0.000000 -1.000000 0.000000
vn 0.000000 1.000000 0.000000
vn 0.000000 1.000000 0.000000
vn 0.000000 1.000000 0.000000
vn 0.000000 1.000000 0.000000
vn -1.000000 0.000000 0.000000
vn -1.000000 0.000000 0.000000
vn -1.000000 0.000000 0.000000
vn -1.000000 0.000000 0.000000
vn -0.000000 -1.000000 -0.000000
vn -0.000001 -1.000000 0.000000
vn -1.000000 0.000000 0.000000
vn -1.000000 0.000000 -0.000000
vn -0.000000 1.000000 0.000000
vn -0.000000 1.000000 0.000000
vn -1.000000 0.000000 0.000000
vn -1.000000 0.000000 0.000000
vn -1.000000 0.000000 0.000000
vn -1.000000 0.000000 0.000000
vn -1.000000 0.000000 0.000000
vn -1.000000 0.000000 0.000000
vn -1.000000 0.000056 0.000000
vn -1.000000 0.000000 0.000000
vn -1.000000 0.000000 0.000000
vn -1.000000 0.000000 0.000000
vn -1.000000 0.000000 0.000000
vn -1.000000 0.000000 0.000000
vn -0.000000 -1.000000 0.000000
vn -0.000000 -1.000000 0.000000
vn -1.000000 0.000000 -0.000000
vn -1.000000 0.000000 -0.000000
vn -0.000001 1.000000 0.000000
vn -0.000001 1.000000 0.000000
vn -1.000000 0.000000 0.000000
vn -1.000000 0.000000 0.000000
vn -1.000000 0.000000 0.000000
vn -1.000000 0.000000 0.000000
vn -1.000000 0.000000 0.000000
vn -1.000000 0.000000 0.000000
vn -1.000000 0.000056 0.000000
vn -1.000000 0.000000 0.000000
vn 0.000000 0.000000 -1.000000
vn 0.000000 0.000000 -1.000000
vn 0.000000 0.000000 -1.000000
vn 0.000000 0.000000 -1.000000
vn 0.000000 -1.000000 -0.000000
vn 0.000000 -1.000000 -0.000000
vn 0.000000 0.000000 1.000000
vn 0.000000 0.000000 1.000000
vn 0.000000 0.000000 1.000000
vn 0.000000 0.000000 1.000000
vn 0.000000 1.000000 -0.000000
vn 0.000000 1.000000 -0.000000
vn 0.000000 1.000000 -0.000000
vn 0.000000 1.000000 -0.000000
vn -1.000000 -0.000458 0.000001
vn -1.000000 -0.000458 0.000000
vn -0.000000 0.000321 -1.000000
vn -0.000001 0.000321 -1.000000
vn -0.000001 0.000321 -1.000000
vn 0.000000 -0.000320 1.000000
vn 0.000000 -0.000320 1.000000
vn 0.000000 -0.000320 1.000000
vn -1.000000 -0.000458 0.000000
vn -1.000000 -0.000458 0.000000
s 1
g fireplace walls_grp roomGeo_grp
usemtl initialShadingGroup
f 65/1/1 66/2/2 12/3/3 13/4/4
f 64/5/5 65/1/1 13/4/4 15/6/6
f 63/7/7 64/5/5 15/6/6 17/8/8
f 62/9/9 63/7/7 17/8/8 19/10/10
f 61/11/11 62/9/9 19/10/10 21/12/12
f 60/13/13 61/11/11 21/12/12 23/14/14
s off
f 55/15/15 56/16/16 38/17/17 10/18/18
s 2
f 10/18/19 38/17/20 39/19/21 36/20/22
f 13/4/23 12/3/24 28/21/25 29/22/26
f 15/6/27 13/4/23 29/22/26 30/23/28
f 17/8/29 15/6/27 30/23/28 31/24/30
f 19/10/31 17/8/29 31/24/30 32/25/32
f 21/12/33 19/10/31 32/25/32 33/26/34
f 23/14/35 21/12/33 33/26/34 34/27/36
s 1
f 59/106/37 60/13/13 23/14/14 26/107/38
s 2
f 35/110/39 26/107/40 23/14/35 34/27/36
f 29/22/26 28/21/25 6/31/41 8/32/42
f 30/23/28 29/22/26 8/32/42 7/33/43
f 31/24/30 30/23/28 7/33/43 3/34/44
f 32/25/32 31/24/30 3/34/44 4/35/45
f 33/26/34 32/25/32 4/35/45 5/36/46
f 34/27/36 33/26/34 5/36/46 1/37/47
f 27/38/48 35/110/39 34/27/36 1/37/47
f 36/20/22 39/19/21 40/116/49 2/40/50
s 4
f 57/114/51 58/112/52 51/43/53 52/44/54
s off
f 53/45/55 52/44/56 51/43/57 54/46/58
s 2
f 40/39/49 39/115/21 35/110/39 27/38/48
s 5
f 92/121/59 48/48/60 90/49/61 91/50/62
f 41/51/63 42/52/64 102/53/65 103/54/66
f 42/52/64 43/55/67 101/56/68 102/53/65
f 43/55/67 44/57/69 100/58/70 101/56/68
f 44/57/69 45/59/71 99/60/72 100/58/70
f 45/59/71 46/61/73 98/62/74 99/60/72
f 46/61/73 47/63/75 97/64/76 98/62/74
f 47/63/75 95/108/77 96/66/78 97/64/76
f 95/108/77 92/47/59 91/122/62 96/66/78
f 11/67/79 14/68/80 42/52/64 41/51/63
f 14/68/80 16/69/81 43/55/67 42/52/64
f 16/69/81 18/70/82 44/57/69 43/55/67
f 18/70/82 20/71/83 45/59/71 44/57/69
f 20/71/83 22/72/84 46/61/73 45/59/71
f 22/72/84 24/73/85 47/63/75 46/61/73
f 24/73/85 25/109/86 95/108/77 47/63/75
s off
f 50/75/87 49/76/88 93/77/89 94/78/90
s 5
f 37/79/91 9/80/92 48/48/60 92/121/59
s 7
f 59/113/93 26/29/94 51/43/95 58/112/96
s 8
f 38/17/97 56/16/98 57/114/99 52/44/100
s off
f 39/19/101 38/17/102 52/44/103 53/45/104
f 26/29/105 35/30/106 54/46/107 51/43/108
f 35/30/109 39/19/110 53/45/111 54/46/112
f 37/79/113 92/121/114 93/77/115 49/76/116
f 95/65/117 25/74/118 50/75/119 94/78/120
f 79/81/121 80/82/122 81/123/123 82/84/124
s 8
f 57/41/99 56/111/98 68/85/125 69/120/126
s 4
f 69/120/127 70/118/128 58/42/52 57/41/51
s 7
f 71/119/129 59/28/93 58/42/96 70/118/130
s 1
f 71/88/131 72/89/132 60/13/13 59/106/37
f 72/89/132 73/90/133 61/11/11 60/13/13
f 73/90/133 74/91/134 62/9/9 61/11/11
f 74/91/134 75/92/135 63/7/7 62/9/9
f 75/92/135 76/93/136 64/5/5 63/7/7
f 76/93/136 77/94/137 65/1/1 64/5/5
f 77/94/137 78/95/138 66/2/2 65/1/1
s off
f 9/80/139 37/79/140 68/117/141 67/96/142
s 8
f 69/86/126 68/117/125 37/79/143 49/76/144
s 4
f 49/76/145 50/75/146 70/87/128 69/86/127
s 7
f 25/74/147 71/105/129 70/87/130 50/75/148
s 1
f 25/109/149 24/73/150 72/89/132 71/88/131
f 24/73/150 22/72/151 73/90/133 72/89/132
f 22/72/151 20/71/152 74/91/134 73/90/133
f 20/71/152 18/70/153 75/92/135 74/91/134
f 18/70/153 16/69/154 76/93/136 75/92/135
f 16/69/154 14/68/155 77/94/137 76/93/136
f 14/68/155 11/67/156 78/95/138 77/94/137
s off
f 67/96/157 68/117/158 80/124/159 79/81/160
s 8
f 68/85/125 56/111/98 81/123/161 80/82/162
s off
f 56/16/163 55/15/164 82/84/165 81/83/166
f 55/15/167 67/96/168 79/81/169 82/84/170
s 1
f 78/95/138 11/67/156 84/97/171 85/98/172
s 2
f 28/21/25 12/3/24 86/99/173 87/100/174
f 6/31/41 28/21/25 87/100/174 83/101/175
s 5
f 11/67/79 41/51/63 88/102/176 84/97/177
f 41/51/63 103/54/66 104/103/178 88/102/176
s 1
f 12/3/3 66/2/2 89/104/179 86/99/180
f 66/2/2 78/95/138 85/98/172 89/104/179
