# This file uses centimeters as units for non-parametric coordinates.

mtllib floor.mtl
g default
v -1147.846680 -105.681313 658.104736
v -5.091370 -105.681313 658.104736
v -1147.846680 -105.681313 -777.978149
v -5.091370 -105.681313 -777.978149
v -1147.846680 -105.681313 -221.754272
v -5.091370 -105.681313 -221.754272
v -1147.846680 -105.681313 282.318787
v -5.091370 -105.681313 282.318787
v -162.209961 -105.681313 658.104797
v -162.209961 -105.681313 282.318787
v -162.209961 -105.681313 -221.754272
v -162.209961 -105.681313 -777.978210
vt 0.000000 0.000000
vt 0.795745 0.000000
vt 0.000000 1.000000
vt 0.795745 1.000000
vt 0.000000 0.615920
vt 0.795745 0.615920
vt 0.000000 0.262960
vt 0.795745 0.262960
vt 0.686337 0.000000
vt 0.686337 0.262960
vt 0.686337 0.615920
vt 0.686337 1.000000
vn 0.000000 1.000000 0.000000
vn 0.000000 1.000000 0.000000
vn 0.000000 1.000000 0.000000
vn 0.000000 1.000000 0.000000
vn 0.000000 1.000000 0.000000
vn 0.000000 1.000000 0.000000
vn 0.000000 1.000000 0.000000
vn 0.000000 1.000000 0.000000
vn 0.000000 1.000000 0.000000
vn 0.000000 1.000000 0.000000
vn 0.000000 1.000000 0.000000
vn 0.000000 1.000000 0.000000
s 1
g floor roomGeo_grp
usemtl lambert3SG
f 5/5/1 11/11/2 12/12/3 3/3/4
f 7/7/5 10/10/6 11/11/2 5/5/1
f 1/1/7 9/9/8 10/10/6 7/7/5
f 9/9/8 2/2/9 8/8/10 10/10/6
f 12/12/3 11/11/2 6/6/11 4/4/12
