# This file uses centimeters as units for non-parametric coordinates.

mtllib table1.mtl
g default
v -368.837524 -22.330078 -351.421417
v -393.681580 -46.464096 -56.475098
v -369.257263 -6.560745 -350.166443
v -394.101440 -30.694778 -55.220123
v -216.400421 -3.535889 -337.043396
v -241.244492 -27.669922 -42.097076
v -215.980637 -19.305222 -338.298401
v -240.824692 -43.439255 -43.352051
v -377.890442 -30.373978 -53.828384
v -353.046356 -6.239960 -348.774719
v -352.626556 -22.009277 -350.029663
v -377.470642 -46.143326 -55.083359
v -262.059753 -28.081833 -43.884109
v -237.215652 -3.947800 -338.830414
v -236.795853 -19.717133 -340.085388
v -261.639954 -43.851166 -45.139084
v -376.072144 -28.607635 -75.415276
v -392.283051 -28.928421 -76.806992
v -391.863251 -44.697754 -78.061958
v -375.652344 -44.376968 -76.670242
v -259.821625 -42.084824 -66.725952
v -239.006393 -41.672897 -64.938934
v -239.426208 -25.903564 -63.683960
v -260.241394 -26.315475 -65.470993
v -354.763092 -7.907593 -328.394226
v -370.973999 -8.228378 -329.785980
v -370.554199 -23.997711 -331.040955
v -354.343292 -23.676926 -329.649170
v -238.512543 -21.384781 -319.704956
v -217.697296 -20.972855 -317.917877
v -218.117126 -5.203537 -316.662903
v -238.932343 -5.615433 -318.449951
v -356.666229 -9.756363 -305.799927
v -372.877136 -10.077164 -307.191681
v -372.457336 -25.846497 -308.446655
v -356.246429 -25.525696 -307.054871
v -240.415726 -23.233551 -297.110657
v -219.600479 -22.821640 -295.323608
v -220.020294 -7.052307 -294.068665
v -240.835526 -7.464218 -295.855652
v -374.709045 -27.283493 -91.597900
v -390.920013 -27.604279 -92.989609
v -390.500183 -43.373611 -94.244576
v -374.289215 -43.052811 -92.852852
v -258.458527 -40.760666 -82.908562
v -237.643280 -40.348770 -81.121536
v -238.063080 -24.579422 -79.866570
v -258.878296 -24.991333 -81.653587
v -349.347534 -26.781616 -89.420563
v -350.710663 -28.105759 -73.237930
v -352.528931 -29.872101 -51.651047
v -352.109161 -45.641434 -52.906021
v -350.290863 -43.875076 -74.492912
v -348.927734 -42.550949 -90.675529
v -330.884949 -25.023834 -304.877594
v -328.981781 -23.175049 -327.471863
v -327.265076 -21.507416 -347.852325
v -327.684875 -5.738083 -346.597351
v -329.401581 -7.405716 -326.216888
v -331.304749 -9.254501 -303.622620
v -277.582397 -25.361465 -83.259392
v -278.945526 -26.685608 -67.076767
v -280.763794 -28.451950 -45.489883
v -280.344025 -44.221298 -46.744858
v -278.525726 -42.454941 -68.331741
v -277.162598 -41.130798 -84.514343
v -259.119812 -23.603683 -298.716431
v -257.216644 -21.754898 -321.310730
v -255.499954 -20.087265 -341.691162
v -255.919724 -4.317932 -340.436188
v -257.636414 -5.985565 -320.055725
v -259.539612 -7.834351 -297.461456
v -258.973785 -103.338860 -83.968292
v -260.477234 -103.468971 -67.744537
v -279.172760 -103.642311 -69.478424
v -277.669281 -103.512199 -85.702187
v -236.791580 -103.898972 -321.333374
v -238.890686 -104.080750 -298.681610
v -257.586212 -104.254120 -300.415497
v -255.487091 -104.072426 -323.067261
v -350.905121 -104.307571 -76.130745
v -349.401672 -104.177368 -92.354492
v -376.254974 -104.542656 -78.481789
v -374.751526 -104.412476 -94.705605
v -329.318604 -104.919281 -307.068054
v -327.219452 -104.737534 -329.719971
v -354.668427 -105.154480 -309.419067
v -352.569336 -104.972633 -332.070984
vt 0.001829 0.079062
vt 0.036071 0.003676
vt 0.035624 0.035268
vt 0.035240 0.079557
vt 0.068310 0.035805
vt 0.067999 0.079674
vt 0.343981 0.079679
vt 0.343841 0.035885
vt 0.412484 0.535376
vt 0.412274 0.577484
vt 0.380747 0.577328
vt 0.380956 0.535219
vt 0.375721 0.035687
vt 0.375911 0.079572
vt 0.068565 0.004132
vt 0.067273 0.665810
vt 0.003075 0.034377
vt 0.034765 0.633726
vt 0.067454 0.633937
vt 0.301886 0.079769
vt 0.637755 0.536495
vt 0.264093 0.079824
vt 0.264044 0.036156
vt 0.301783 0.036062
vt 0.637546 0.578603
vt 0.601170 0.578422
vt 0.601379 0.536314
vt 0.678238 0.536696
vt 0.678029 0.578804
vt 0.034514 0.665535
vt 0.263981 0.634249
vt 0.412640 0.503810
vt 0.381113 0.503653
vt 0.301799 0.634244
vt 0.678395 0.505129
vt 0.375580 0.634362
vt 0.343794 0.634247
vt 0.034907 0.112599
vt 0.637912 0.504928
vt 0.415131 0.002149
vt 0.414934 0.041904
vt 0.383407 0.041747
vt 0.067758 0.112591
vt 0.344041 0.112546
vt 0.375933 0.112545
vt 0.301937 0.112570
vt 0.264121 0.112600
vt 0.383604 0.001992
vt 0.640403 0.003267
vt 0.640206 0.043022
vt 0.603830 0.042842
vt 0.034917 0.592630
vt 0.067600 0.592692
vt 0.604027 0.003087
vt 0.680885 0.003468
vt 0.343875 0.592981
vt 0.375762 0.593078
vt 0.301802 0.592928
vt 0.680688 0.043223
vt 0.414715 0.085977
vt 0.383188 0.085820
vt 0.680469 0.087297
vt 0.263995 0.592904
vt 0.639987 0.087096
vt 0.034937 0.546963
vt 0.067681 0.546966
vt 0.002917 0.112633
vt 0.601536 0.504748
vt 0.603611 0.086915
vt 0.343950 0.547130
vt 0.375840 0.547151
vt 0.461808 0.535621
vt 0.301849 0.547108
vt 0.461598 0.577729
vt 0.264028 0.547078
vt 0.119082 0.112602
vt 0.464039 0.086222
vt 0.119191 0.079819
vt 0.119322 0.036130
vt 0.461964 0.504054
vt 0.118755 0.634136
vt 0.464455 0.002394
vt 0.118844 0.592797
vt 0.464258 0.042149
vt 0.118930 0.546993
vt 0.301853 0.666112
vt 0.263978 0.666152
vt 0.343830 0.666044
vt 0.118687 0.666048
vt 0.003116 0.633583
vt 0.003213 0.592599
vt 0.003084 0.546973
vt 0.264004 0.004393
vt 0.301649 0.004267
vt 0.343673 0.004022
vt 0.119386 0.004393
vt 0.180726 0.855861
vt 0.141093 0.855848
vt 0.141105 0.811496
vt 0.180740 0.811509
vt 0.177641 0.998008
vt 0.001829 0.854729
vt 0.137908 0.672721
vt 0.322457 0.810170
vt 0.177438 0.669822
vt 0.002301 0.810377
vt 0.322892 0.854521
vt 0.138119 0.995086
vt 0.734374 0.843822
vt 0.734376 0.802862
vt 0.768183 0.802863
vt 0.768181 0.843823
vt 0.585763 0.841799
vt 0.735511 0.657251
vt 0.913434 0.800731
vt 0.769615 0.992099
vt 0.916440 0.841580
vt 0.769318 0.657602
vt 0.588773 0.800949
vt 0.735809 0.992447
vt 0.731200 0.647573
vt 0.691409 0.647029
vt 0.691411 0.584578
vt 0.731201 0.584045
vt 0.726271 0.797400
vt 0.543662 0.650182
vt 0.686382 0.438341
vt 0.884547 0.586999
vt 0.725868 0.434890
vt 0.544300 0.587939
vt 0.885202 0.650600
vt 0.686828 0.793953
vt 0.433132 0.774262
vt 0.394015 0.774068
vt 0.394030 0.728584
vt 0.433146 0.728401
vt 0.431190 0.923919
vt 0.245288 0.777175
vt 0.392090 0.582244
vt 0.585453 0.731365
vt 0.430942 0.579237
vt 0.245782 0.731683
vt 0.392340 0.920896
vt 0.585916 0.777207
vn -0.996141 -0.019715 -0.085520
vn -0.996141 -0.019715 -0.085523
vn -0.996141 -0.019715 -0.085523
vn -0.996141 -0.019715 -0.085520
vn -0.026527 0.996497 0.079304
vn -0.026528 0.996498 0.079304
vn -0.026528 0.996497 0.079304
vn -0.026528 0.996498 0.079304
vn 0.996141 0.019714 0.085520
vn 0.996142 0.019714 0.085519
vn 0.996142 0.019714 0.085519
vn 0.996141 0.019714 0.085520
vn 0.026528 -0.996497 -0.079304
vn 0.026528 -0.996497 -0.079304
vn 0.026527 -0.996497 -0.079304
vn 0.026527 -0.996497 -0.079304
vn -0.083658 -0.081267 0.993175
vn -0.083658 -0.081267 0.993175
vn -0.083658 -0.081267 0.993175
vn -0.083658 -0.081267 0.993175
vn 0.083658 0.081266 -0.993175
vn 0.083659 0.081266 -0.993175
vn 0.083659 0.081266 -0.993175
vn 0.083658 0.081266 -0.993175
vn -0.026528 0.996497 0.079304
vn -0.026528 0.996497 0.079304
vn -0.026528 0.996497 0.079304
vn -0.026528 0.996497 0.079304
vn 0.083656 0.081268 -0.993175
vn 0.083658 0.081267 -0.993175
vn 0.083658 0.081267 -0.993175
vn 0.083656 0.081268 -0.993175
vn 0.026528 -0.996497 -0.079304
vn 0.026528 -0.996497 -0.079304
vn 0.026528 -0.996498 -0.079304
vn 0.026528 -0.996497 -0.079304
vn -0.083658 -0.081267 0.993175
vn -0.083658 -0.081267 0.993175
vn -0.083658 -0.081267 0.993175
vn -0.083658 -0.081267 0.993175
vn -0.026528 0.996497 0.079304
vn -0.026528 0.996497 0.079304
vn 0.083656 0.081268 -0.993175
vn 0.083656 0.081268 -0.993175
vn 0.026528 -0.996498 -0.079304
vn 0.026528 -0.996497 -0.079304
vn -0.083658 -0.081267 0.993175
vn -0.083658 -0.081267 0.993175
vn -0.026528 0.996498 0.079304
vn -0.026528 0.996497 0.079304
vn -0.996141 -0.019711 -0.085521
vn -0.996141 -0.019711 -0.085521
vn 0.026528 -0.996498 -0.079304
vn 0.026528 -0.996497 -0.079304
vn 0.009929 -0.999925 -0.007099
vn 0.009929 -0.999925 -0.007099
vn 0.009929 -0.999925 -0.007099
vn 0.009929 -0.999926 -0.007099
vn 0.026528 -0.996497 -0.079304
vn 0.026528 -0.996497 -0.079304
vn 0.996141 0.019713 0.085521
vn 0.996141 0.019713 0.085521
vn -0.026528 0.996497 0.079304
vn -0.026528 0.996498 0.079304
vn -0.026528 0.996498 0.079304
vn -0.026527 0.996497 0.079304
vn -0.026528 0.996497 0.079304
vn -0.026528 0.996498 0.079304
vn -0.026528 0.996497 0.079304
vn -0.996141 -0.019711 -0.085521
vn -0.996141 -0.019713 -0.085520
vn -0.996141 -0.019713 -0.085520
vn -0.996141 -0.019711 -0.085521
vn 0.026528 -0.996498 -0.079304
vn 0.026528 -0.996497 -0.079304
vn 0.026528 -0.996497 -0.079304
vn 0.026528 -0.996497 -0.079304
vn 0.026528 -0.996497 -0.079304
vn 0.026528 -0.996498 -0.079304
vn 0.026528 -0.996497 -0.079304
vn 0.026528 -0.996497 -0.079304
vn 0.026528 -0.996498 -0.079304
vn 0.026529 -0.996497 -0.079304
vn 0.996141 0.019714 0.085520
vn 0.996141 0.019713 0.085520
vn 0.996141 0.019713 0.085520
vn 0.996141 0.019714 0.085520
vn -0.026528 0.996497 0.079304
vn -0.026528 0.996497 0.079304
vn -0.026528 0.996497 0.079304
vn -0.026528 0.996497 0.079304
vn -0.026528 0.996497 0.079304
vn -0.026528 0.996498 0.079304
vn -0.026528 0.996497 0.079304
vn -0.026528 0.996498 0.079304
vn -0.996141 -0.019711 -0.085521
vn -0.996141 -0.019711 -0.085521
vn 0.026528 -0.996497 -0.079304
vn 0.026528 -0.996497 -0.079304
vn 0.009934 -0.999925 -0.007102
vn 0.009934 -0.999925 -0.007102
vn 0.009934 -0.999925 -0.007102
vn 0.009934 -0.999925 -0.007102
vn 0.026528 -0.996497 -0.079304
vn 0.026528 -0.996497 -0.079304
vn 0.996141 0.019713 0.085521
vn 0.996141 0.019713 0.085521
vn -0.026528 0.996498 0.079304
vn -0.026528 0.996498 0.079304
vn -0.026528 0.996497 0.079304
vn 0.026528 -0.996497 -0.079304
vn 0.026528 -0.996498 -0.079304
vn -0.026528 0.996497 0.079304
vn -0.026528 0.996498 0.079304
vn -0.026528 0.996497 0.079304
vn -0.083658 -0.081267 0.993175
vn -0.083658 -0.081267 0.993175
vn 0.026528 -0.996498 -0.079304
vn 0.026528 -0.996497 -0.079304
vn 0.009932 -0.999925 -0.007103
vn 0.009932 -0.999926 -0.007103
vn 0.009932 -0.999926 -0.007103
vn 0.009932 -0.999926 -0.007103
vn 0.026528 -0.996498 -0.079304
vn 0.026528 -0.996498 -0.079304
vn 0.009934 -0.999925 -0.007105
vn 0.009934 -0.999925 -0.007105
vn 0.009934 -0.999925 -0.007105
vn 0.009934 -0.999925 -0.007105
vn 0.026528 -0.996497 -0.079304
vn 0.026528 -0.996497 -0.079304
vn 0.083658 0.081267 -0.993175
vn 0.083658 0.081267 -0.993175
vn -0.026528 0.996498 0.079304
vn -0.026528 0.996497 0.079304
vn -0.026528 0.996498 0.079304
vn 0.996094 -0.010878 0.087623
vn 0.996094 -0.010878 0.087623
vn 0.996094 -0.010878 0.087623
vn 0.996094 -0.010878 0.087623
vn -0.088691 -0.016651 0.995920
vn -0.088691 -0.016651 0.995920
vn -0.088691 -0.016651 0.995920
vn -0.088691 -0.016651 0.995920
vn -0.996094 0.010955 -0.087621
vn -0.996094 0.010955 -0.087621
vn -0.996094 0.010955 -0.087621
vn -0.996094 0.010955 -0.087621
vn 0.088682 0.017188 -0.995912
vn 0.088682 0.017188 -0.995912
vn 0.088682 0.017188 -0.995912
vn 0.088682 0.017188 -0.995912
vn 0.995877 0.018047 0.088901
vn 0.995877 0.018047 0.088901
vn 0.995877 0.018047 0.088901
vn 0.995877 0.018047 0.088901
vn -0.088608 -0.021842 0.995827
vn -0.088608 -0.021842 0.995827
vn -0.088608 -0.021842 0.995827
vn -0.088608 -0.021842 0.995827
vn -0.995877 -0.018055 -0.088902
vn -0.995877 -0.018055 -0.088902
vn -0.995877 -0.018055 -0.088902
vn -0.995877 -0.018055 -0.088902
vn 0.088599 0.022305 -0.995818
vn 0.088599 0.022305 -0.995818
vn 0.088599 0.022305 -0.995818
vn 0.088599 0.022305 -0.995818
vn 0.996092 -0.011260 0.087606
vn 0.996092 -0.011260 0.087606
vn 0.996092 -0.011260 0.087606
vn 0.996092 -0.011260 0.087606
vn -0.088512 -0.027586 0.995693
vn -0.088512 -0.027586 0.995693
vn -0.088512 -0.027586 0.995693
vn -0.088512 -0.027586 0.995693
vn -0.996091 0.011370 -0.087601
vn -0.996091 0.011370 -0.087601
vn -0.996091 0.011370 -0.087601
vn -0.996091 0.011370 -0.087601
vn 0.088507 0.027919 -0.995684
vn 0.088507 0.027919 -0.995684
vn 0.088507 0.027919 -0.995684
vn 0.088507 0.027919 -0.995684
vn 0.995876 0.018087 0.088903
vn 0.995876 0.018087 0.088903
vn 0.995876 0.018087 0.088903
vn 0.995876 0.018087 0.088903
vn -0.088466 -0.030170 0.995622
vn -0.088466 -0.030170 0.995622
vn -0.088466 -0.030170 0.995622
vn -0.088466 -0.030170 0.995622
vn -0.995876 -0.018100 -0.088902
vn -0.995876 -0.018100 -0.088902
vn -0.995876 -0.018100 -0.088902
vn -0.995876 -0.018100 -0.088902
vn 0.088461 0.030470 -0.995614
vn 0.088461 0.030470 -0.995614
vn 0.088461 0.030470 -0.995614
vn 0.088461 0.030470 -0.995614
s 1
g table1 furniture_grp
usemtl lambert9SG
f 19/1/1 2/17/2 4/3/3 18/4/4
s 2
f 18/4/5 4/3/6 9/5/7 17/6/8
s 3
f 23/7/9 6/8/10 8/13/11 22/14/12
s 4
f 20/9/13 12/10/14 2/11/15 19/12/16
s 5
f 2/2/17 12/15/18 9/5/19 4/3/20
s 6
f 11/16/21 1/30/22 3/18/23 10/19/24
s 2
f 24/20/25 62/22/26 63/23/27 13/24/28
s 6
f 15/86/29 69/87/30 70/31/31 14/34/32
s 4
f 21/21/33 16/25/34 64/26/35 65/27/36
s 5
f 63/23/37 64/93/38 16/94/39 13/24/40
s 2
f 24/20/25 13/24/28 6/8/41 23/7/42
s 6
f 7/88/43 15/86/29 14/34/32 5/37/44
s 4
f 22/28/45 8/29/46 16/25/34 21/21/33
s 5
f 13/24/40 16/94/39 8/95/47 6/8/48
s 2
f 42/38/49 18/4/5 17/6/8 41/43/50
s 1
f 43/67/51 19/1/1 18/4/4 42/38/52
s 4
f 44/32/53 20/9/13 19/12/16 43/33/54
s off
f 73/133/55 74/134/56 75/135/57 76/136/58
s 4
f 46/35/59 22/28/45 21/21/33 45/39/60
s 3
f 47/44/61 23/7/9 22/14/12 46/45/62
s 2
f 48/46/63 24/20/25 23/7/42 47/44/64
f 48/46/63 61/47/65 62/22/26 24/20/25
f 3/18/66 26/52/67 25/53/68 10/19/69
s 1
f 1/90/70 27/91/71 26/52/72 3/18/73
s 4
f 11/40/74 28/41/75 27/42/76 1/48/77
f 15/49/78 29/50/79 68/51/80 69/54/81
f 7/55/82 30/59/83 29/50/79 15/49/78
s 3
f 5/37/84 31/56/85 30/57/86 7/36/87
s 2
f 14/34/88 32/58/89 31/56/90 5/37/91
f 70/31/92 71/63/93 32/58/89 14/34/88
f 26/52/67 34/65/94 33/66/95 25/53/68
s 1
f 27/91/71 35/92/96 34/65/97 26/52/72
s 4
f 28/41/75 36/60/98 35/61/99 27/42/76
s off
f 77/109/100 78/110/101 79/111/102 80/112/103
s 4
f 30/59/83 38/62/104 37/64/105 29/50/79
s 3
f 31/56/85 39/70/106 38/71/107 30/57/86
s 2
f 32/58/89 40/73/108 39/70/109 31/56/90
f 32/58/89 71/63/93 72/75/110 40/73/108
f 34/65/94 42/38/49 41/43/50 33/66/95
s 1
f 35/92/96 43/67/51 42/38/52 34/65/97
s 4
f 36/60/98 44/32/53 43/33/54 35/61/99
f 37/64/105 45/39/60 66/68/111 67/69/112
f 38/62/104 46/35/59 45/39/60 37/64/105
s 3
f 39/70/106 47/44/61 46/45/62 38/71/107
s 2
f 40/73/108 48/46/63 47/44/64 39/70/109
f 40/73/108 72/75/110 61/47/65 48/46/63
f 49/76/113 41/43/50 17/6/8 50/78/114
f 51/79/115 50/78/114 17/6/8 9/5/7
s 5
f 9/5/19 12/15/18 52/96/116 51/79/117
s 4
f 53/72/118 52/74/119 12/10/14 20/9/13
s off
f 82/121/120 81/122/121 83/123/122 84/124/123
s 4
f 55/77/124 54/80/125 44/32/53 36/60/98
s off
f 86/97/126 85/98/127 87/99/128 88/100/129
s 4
f 57/82/130 56/84/131 28/41/75 11/40/74
s 6
f 58/81/132 57/89/133 11/16/21 10/19/24
s 2
f 10/19/69 25/53/68 59/83/134 58/81/135
f 60/85/136 59/83/134 25/53/68 33/66/95
f 49/76/113 60/85/136 33/66/95 41/43/50
f 61/47/65 49/76/113 50/78/114 62/22/26
f 63/23/27 62/22/26 50/78/114 51/79/115
s 5
f 51/79/117 52/96/116 64/93/38 63/23/37
s 4
f 65/27/36 64/26/35 52/74/119 53/72/118
f 66/68/111 65/27/36 53/72/118 54/80/125
f 67/69/112 66/68/111 54/80/125 55/77/124
f 68/51/80 67/69/112 55/77/124 56/84/131
f 69/54/81 68/51/80 56/84/131 57/82/130
s 6
f 70/31/31 69/87/30 57/89/133 58/81/132
s 2
f 58/81/135 59/83/134 71/63/93 70/31/92
f 72/75/110 71/63/93 59/83/134 60/85/136
f 61/47/65 72/75/110 60/85/136 49/76/113
s off
f 45/137/137 21/143/138 74/134/139 73/133/140
f 21/138/141 65/142/142 75/135/143 74/134/144
f 65/139/145 66/141/146 76/136/147 75/135/148
f 66/140/149 45/144/150 73/133/151 76/136/152
f 29/113/153 37/119/154 78/110/155 77/109/156
f 37/114/157 67/118/158 79/111/159 78/110/160
f 67/115/161 68/117/162 80/112/163 79/111/164
f 68/116/165 29/120/166 77/109/167 80/112/168
f 54/125/169 53/132/170 81/122/171 82/121/172
f 53/126/173 20/130/174 83/123/175 81/122/176
f 20/127/177 44/129/178 84/124/179 83/123/180
f 44/128/181 54/131/182 82/121/183 84/124/184
f 56/101/185 55/108/186 85/98/187 86/97/188
f 55/102/189 36/106/190 87/99/191 85/98/192
f 36/103/193 28/105/194 88/100/195 87/99/196
f 28/104/197 56/107/198 86/97/199 88/100/200
