# This file uses centimeters as units for non-parametric coordinates.

mtllib windowsill.mtl
g default
v -1141.983765 343.278320 -771.003784
v -988.166687 343.278320 -771.003784
v -1141.983765 354.600800 -761.136230
v -988.166687 354.600800 -761.136230
v -1141.983765 435.766327 -865.612610
v -988.166687 435.766327 -865.612610
v -1141.983765 420.469574 -862.775818
v -988.166687 420.469574 -862.775818
vt 0.046189 0.102695
vt 0.603065 0.923586
vt 0.576043 0.083026
vt 0.093177 0.098526
vt 0.589454 0.498269
vt 0.106503 0.513904
vt 0.620738 0.460720
vt 0.108083 0.562727
vt 0.574525 0.035889
vt 0.120144 0.939107
vt 0.591019 0.547120
vt 0.072859 0.478464
vt 0.623196 0.084164
vt 0.091671 0.051375
vn 0.000000 -0.657009 0.753883
vn 0.000000 -0.657009 0.753883
vn 0.000000 -0.657009 0.753883
vn 0.000000 -0.657009 0.753883
vn 0.000000 0.789696 0.613498
vn 0.000000 0.789696 0.613498
vn 0.000000 0.789696 0.613498
vn 0.000000 0.789696 0.613498
vn 0.000000 -0.182341 -0.983235
vn 0.000000 -0.182341 -0.983235
vn 0.000000 -0.182341 -0.983235
vn 0.000000 -0.182341 -0.983235
vn 0.000000 -0.765283 -0.643695
vn 0.000000 -0.765283 -0.643695
vn 0.000000 -0.765283 -0.643695
vn 0.000000 -0.765283 -0.643695
vn 1.000000 -0.000004 0.000000
vn 1.000000 -0.000004 0.000000
vn 1.000000 -0.000004 0.000000
vn 1.000000 -0.000004 0.000000
vn -1.000000 0.000000 0.000000
vn -1.000000 0.000000 0.000000
vn -1.000000 0.000000 0.000000
vn -1.000000 0.000000 0.000000
s off
g windowSill1 window1_grp walls_grp roomGeo_grp
usemtl initialShadingGroup
f 1/14/1 2/9/2 4/3/3 3/4/4
f 3/4/5 4/3/6 6/5/7 5/6/8
f 5/6/9 6/5/10 8/11/11 7/8/12
f 7/8/13 8/11/14 2/2/15 1/10/16
f 2/13/17 8/7/18 6/5/19 4/3/20
f 7/12/21 1/1/22 3/4/23 5/6/24
